<svg xmlns="http://www.w3.org/2000/svg" width="256" height="256"><path fill-opacity=".016" d="M0 128.004v128.004l128.25-.254 128.25-.254.254-127.75L257.008 0H0v128.004m.485.496c0 70.4.119 99.053.265 63.672.146-35.38.146-92.98 0-128C.604 29.153.485 58.1.485 128.5" fill="#1976D2" fill-rule="evenodd"/><path fill-opacity=".195" d="M105 2.935c0 4.395 1.527 7.62 6.502 13.726 2.474 3.037 4.55 6.494 4.613 7.681.318 5.949-1.227 8.63-6.561 11.389-2.178 1.126-4.667 1.374-9.503.948-6.11-.54-10.346-1.828-36.551-11.117-12.095-4.287-13.796-4.372-16.293-.812-6.004 8.558-5.196 15.015 3.011 24.071 3.271 3.61 7.198 9.064 8.727 12.121 5.702 11.402 6.264 18.607 4.679 60.058-.714 18.676-.585 24.572.761 34.695 1.966 14.784 6.268 31.808 10.975 43.428C82.102 215.767 93.676 237 96.007 237c1.207 0 .841-1.789-3.169-15.5-5.566-19.03-4.655-32.883 2.642-40.18 7.927-7.927 20.953-1.506 25.229 12.434 2.484 8.1 2.206 27.649-.646 45.246-1.202 7.425-2.406 14.4-2.674 15.5-.982 4.025 4.581-3.885 9.494-13.5 9.174-17.956 14.922-35.579 17.209-52.767 1.531-11.504.63-42.795-1.591-55.233-3.094-17.332-8.437-36.084-15.037-52.779-3.587-9.073-6.396-16.583-6.243-16.689.154-.106 2.979-.764 6.279-1.463 7.92-1.676 18.126-6.568 20.151-9.659.891-1.36 1.446-2.619 1.234-2.799-.212-.179-3.535.037-7.385.48-8.032.926-15.665.24-18.232-1.637-1.673-1.224-1.653-1.417.377-3.623 3.578-3.888 6.347-9.173 6.351-12.121.008-5.54-4.813-12.453-13.415-19.24-2.705-2.135-6.26-6.038-7.899-8.675C107.042 2.158 105.543 0 105.351 0c-.193 0-.351 1.321-.351 2.935m82.791 6.146c-14.191 2.08-24.623 12.198-26.354 25.558-1.448 11.181 3.265 18.184 21.147 31.423 13.826 10.237 18.909 15.717 20.007 21.573 1.872 9.979-8.404 15.574-22.048 12.005-3.277-.857-6.093-1.423-6.259-1.257-.864.863 6.015 13.707 7.873 14.701 3.755 2.01 14.05.557 20.055-2.831 4.14-2.336 5.906-4.153 8.134-8.368 5.35-10.122 2.355-20.474-8.901-30.761-3.094-2.828-8.848-7.008-12.786-9.288-16.942-9.811-19.661-13.184-20.442-25.361-.439-6.837-.302-7.481 2.111-9.894 1.91-1.91 3.616-2.581 6.561-2.581 5.517 0 8.377-1.282 13.603-6.1 5.187-4.78 5.647-6.182 1.758-5.35l-2.75.588 2.75-1.801c2.57-1.683 3.695-3.491 2-3.215-.412.067-3.319.499-6.459.959m-92.294 5.13C91 18.17 87.071 24.579 87.022 28.038c-.015 1.046 1.964 2.07 6.192 3.202 3.418.916 6.343 1.536 6.501 1.379.158-.158-.092-2.312-.554-4.786-.782-4.187-.188-8.353 2.223-15.583 1.104-3.31-.508-2.773-5.887 1.961M129 70.946c0 .585 2.23 7.124 4.956 14.532 8.758 23.801 13.5 46.787 14.703 71.272.358 7.287 1.053 13.25 1.544 13.25 1.578 0 5.565-4.975 7.803-9.736 3.136-6.671 4.942-16.125 5.59-29.264 1.075-21.788-3.584-36.215-15.507-48.027C141.82 76.764 129 68.686 129 70.946m27 12.579c0 .289 1.607 3.715 3.57 7.614 8.097 16.079 9.959 34.951 5.51 55.861-1.999 9.399-2.111 11.29-1.068 18.033.958 6.194.883 9.565-.423 18.96-2.632 18.929-1.917 20.491 3.727 8.144 4.588-10.038 9.957-27.854 12.211-40.524 3.133-17.615.13-38.095-7.755-52.889C168.055 91.749 156 80.133 156 83.525" fill="#1976D2" fill-rule="evenodd"/><path fill-opacity=".752" d="M105.006 2.25c.017 3.795 2.583 9.276 6.479 13.842 5.003 5.861 6.247 9.727 4.491 13.965-3.415 8.245-15.482 9.134-33.976 2.503-5.775-2.07-14.1-5.052-18.5-6.625-4.4-1.573-9.526-2.989-11.39-3.148-3.092-.262-3.598.101-5.75 4.12-2.572 4.803-3.124 11.755-1.224 15.409.624 1.201 3.565 4.755 6.535 7.896 2.969 3.142 6.739 8.576 8.376 12.075 4.817 10.293 5.542 18.657 4.154 47.936-1.767 37.284.186 55.259 8.808 81.044 4.269 12.769 13.291 31.809 19.294 40.72 4.69 6.961 4.825 4.776.531-8.614-2.762-8.613-3.177-11.343-3.25-21.39-.076-10.427.154-11.98 2.428-16.408 4.619-8.993 12.344-10.722 20.737-4.642 4.647 3.366 7.798 9.296 9.37 17.632 1.481 7.86.506 27.801-2.076 42.435-1.117 6.325-2.023 12.175-2.015 13 .027 2.848 8.216-11.319 12.944-22.393 10.978-25.714 13.453-37.601 13.452-64.607-.001-11.074-.557-22.957-1.288-27.5-3.713-23.099-7.94-38.643-16.196-59.569-3.267-8.281-5.94-15.447-5.94-15.923 0-.476 2.588-1.399 5.75-2.051 7.501-1.545 17.12-5.987 20.175-9.317l2.426-2.642-10.426.629c-8.309.501-11.186.309-14.175-.948-2.062-.867-3.75-1.971-3.75-2.454 0-.482 1.186-1.967 2.636-3.301 1.45-1.333 3.493-4.331 4.542-6.662 1.564-3.48 1.722-4.921.878-8.053-1.232-4.577-6.644-11.142-12.514-15.18-2.354-1.619-5.735-5.213-7.515-7.987-3.374-5.258-4.031-5.877-4.021-3.792m77.864 8.315c-6.858 2.112-13.927 7.311-17.223 12.666-3.41 5.542-4.698 16.056-2.705 22.093 1.693 5.13 8.905 12.73 18.392 19.383 9.585 6.721 18.285 14.655 20.263 18.48 1.885 3.646 1.774 9.838-.228 12.696-3.276 4.677-12.94 6.475-21.713 4.039-2.114-.587-4.047-.864-4.296-.615-1.049 1.048 5.311 12.273 7.64 13.484 5.534 2.878 19.577-1.267 24.924-7.357 1.802-2.053 3.329-5.336 4.012-8.626 2.706-13.034-5.873-24.754-26.945-36.813-4.891-2.799-10.056-6.472-11.479-8.163-5.068-6.023-7.357-14.98-5.547-21.702 1.25-4.641 3.315-6.13 8.501-6.13 4.705 0 9.311-1.988 13.857-5.978 4.235-3.719 4.601-5.013 1.427-5.044l-2.25-.022L192 11l2.5-1.956-3.5.048c-1.925.026-5.583.689-8.13 1.473m-86.621 3.019c-3.211 2.531-7.441 8.896-8.679 13.06-.551 1.855 0 2.362 4.074 3.75 7.688 2.62 8.257 2.384 7.043-2.92-.828-3.618-.7-5.592.639-9.838 2.476-7.854 2.203-8.213-3.077-4.052M130 72.453c0 .799 2.059 6.986 4.575 13.748 8.259 22.196 12.971 45.788 15.006 75.132l.612 8.834 2.421-2.275c6.369-5.982 10.526-21.794 10.621-40.392.074-14.419-1.277-21.608-5.877-31.281-4.031-8.476-11.181-16.144-20.11-21.568-6.741-4.095-7.248-4.249-7.248-2.198m27 12.369c0 .453 1.369 3.35 3.042 6.44 1.673 3.089 4.186 10.031 5.585 15.427 2.271 8.765 2.482 11.091 1.977 21.811-.31 6.6-1.386 15.825-2.391 20.5-1.516 7.051-1.661 9.887-.854 16.639.764 6.384.608 10.887-.725 20.884-.935 7.009-1.489 12.955-1.232 13.212.887.888 6.793-12.075 10.085-22.139 10.565-32.292 10.524-54.806-.141-76.548C167.883 91.95 157 80.443 157 84.822" fill="#1976D2" fill-rule="evenodd"/><path fill-opacity=".96" d="M106.3 5.787c.368 3.041 1.636 5.609 4.36 8.836 5.16 6.113 6.308 8.3 6.325 12.05.02 4.203-4.075 8.974-8.957 10.437-5.471 1.639-12.985.42-26.17-4.248-33.262-11.774-31.884-11.511-34.839-6.652-4.867 8.002-3.89 13.586 3.914 22.378C61.165 60.115 64.746 69.274 65.167 85c.125 4.675-.147 20.425-.605 35-.713 22.716-.591 28.142.86 38 3.029 20.583 7.966 36.596 17.113 55.5 5.319 10.992 12.349 22.949 13.07 22.229.21-.21-1.219-5.973-3.176-12.806-5.856-20.448-5.019-34.065 2.584-42.057 3.131-3.292 4.302-3.866 7.882-3.866 7.356 0 13.173 4.539 17.301 13.5 2.146 4.658 2.299 6.233 2.227 23-.059 13.716-.57 20.618-2.144 29-1.137 6.05-1.95 11.127-1.807 11.282.715.778 8.987-14.567 12.931-23.988 9.907-23.662 12.723-37.554 12.695-62.615-.035-31.509-5.177-56.127-19.035-91.132-2.712-6.849-4.708-12.812-4.438-13.25.271-.438 1.544-.797 2.829-.797 6.105 0 24.545-8.059 24.547-10.728 0-.425-5.383-.772-11.963-.772-9.9 0-12.255-.292-13.656-1.691-1.59-1.589-1.498-1.913 1.53-5.361 6.081-6.926 6.684-12.695 2.059-19.679-1.666-2.515-5.528-6.459-8.582-8.765-3.054-2.306-6.915-6.287-8.581-8.848L105.78 1.5l.52 4.287m77.897 4.772c-6.794 1.828-8.544 2.798-13.804 7.647C165.34 22.863 162 30.677 162 37.841c0 9.861 6.36 17.875 23.289 29.346 3.416 2.314 8.539 6.53 11.384 9.369 10.751 10.724 9.113 21.377-3.763 24.466-4.774 1.145-7.889.831-16.131-1.625-1.488-.444-1.378.272.814 5.295 3.404 7.8 4.531 8.537 12.407 8.107 13.145-.718 20.985-7.445 21.8-18.706.854-11.805-7.558-22.654-25.544-32.947-14.776-8.455-18.652-13.811-18.717-25.866-.05-9.253 1.55-11.155 10.25-12.181 6.329-.746 12.503-4.088 15.003-8.122 1.123-1.811 1.071-2.044-.396-1.78-2.604.468-2.733-1.731-.174-2.964l2.278-1.098-2.5-.002c-1.375-.001-4.886.641-7.803 1.426m-87.269 2.977c-3.607 2.645-8.906 10.768-8.92 13.675-.006 1.2 1.542 2.172 5.174 3.25 2.849.847 5.273 1.539 5.384 1.539.112 0-.022-2.813-.298-6.252-.359-4.466-.036-7.367 1.128-10.154.897-2.145 1.48-4.052 1.296-4.236-.185-.184-1.878.796-3.764 2.178m33.565 59.598c.385 1.301 2.715 7.986 5.177 14.855 8.058 22.482 12.457 44.357 13.929 69.261.382 6.463 1.088 11.75 1.57 11.75 1.883 0 6.744-9.487 8.859-17.29 3.035-11.196 3.797-31.249 1.585-41.71-2.435-11.521-7.474-20.786-15.051-27.68-3.519-3.201-8.732-7.11-11.584-8.686l-5.187-2.867.702 2.367M157 84.416c0 .267 1.58 3.546 3.511 7.285 7.556 14.633 9.698 33.444 5.897 51.799-1.356 6.553-1.869 13.35-1.886 25-.012 8.8-.407 19.15-.877 23-.767 6.272-.703 6.792.611 5 2.664-3.634 8.487-19.796 11.89-33 3.025-11.739 3.349-14.358 3.343-27-.007-11.527-.406-15.377-2.259-21.799-2.938-10.182-7.347-18.788-12.474-24.35-3.769-4.089-7.756-7.14-7.756-5.935" fill="#1976D2" fill-rule="evenodd"/></svg>